<?xml version="1.0" encoding="utf-8"?>
<!-- Generator: Adobe Illustrator 25.2.0, SVG Export Plug-In . SVG Version: 6.00 Build 0)  -->
<svg version="1.1" id="Calque_1" xmlns="http://www.w3.org/2000/svg" xmlns:xlink="http://www.w3.org/1999/xlink" x="0px" y="0px"
	 viewBox="0 0 198.43 85.04" style="enable-background:new 0 0 198.43 85.04;" xml:space="preserve">
<style type="text/css">
	.st0{fill:none;}
	.st1{fill:#EE7F00;}
	.st2{fill:#771C7F;}
	.st3{fill:#E20031;}
	.st4{fill:#FFCC00;}
	.st5{fill:#006AB3;}
	.st6{fill:#E2007A;}
	.st7{fill:#FFFFFF;}
	.st8{fill:#009036;}
	.st9{fill-rule:evenodd;clip-rule:evenodd;fill:#FFFFFF;}
	.st10{fill:none;stroke:#FFFFFF;stroke-width:2.7148;}
	.st11{fill-rule:evenodd;clip-rule:evenodd;}
</style>
<rect y="0" class="st0" width="198.42" height="85.04"/>
<g>
	<g>
		<path d="M137.48,49.37h-0.4l-0.38-0.91h-1.38l-0.39,0.91h-0.39l1.49-3.38L137.48,49.37z M136.56,48.12l-0.54-1.29l-0.55,1.29
			H136.56z"/>
		<path d="M139.8,49.37h-0.44l-0.97-1.41h-0.1v1.41h-0.36v-3.23h0.52c0.35,0,0.61,0.06,0.77,0.17c0.24,0.17,0.36,0.4,0.36,0.72
			c0,0.25-0.07,0.46-0.22,0.62c-0.15,0.16-0.34,0.25-0.59,0.28L139.8,49.37z M139.23,47.03c0-0.37-0.24-0.55-0.73-0.55h-0.21v1.16
			h0.23C138.99,47.63,139.23,47.43,139.23,47.03z"/>
		<path d="M141.89,46.47h-0.78v2.89h-0.36v-2.89h-0.78v-0.33h1.92V46.47z"/>
		<path d="M142.73,49.37h-0.36v-3.23h0.36V49.37z"/>
		<path d="M145.41,48.43c0,0.28-0.1,0.51-0.29,0.71c-0.2,0.19-0.44,0.29-0.72,0.29c-0.26,0-0.47-0.07-0.65-0.21
			c-0.17-0.14-0.29-0.35-0.35-0.62l0.35-0.1c0.09,0.39,0.3,0.59,0.65,0.59c0.19,0,0.34-0.06,0.47-0.18
			c0.13-0.12,0.19-0.27,0.19-0.45c0-0.19-0.09-0.35-0.27-0.46c-0.03-0.02-0.12-0.07-0.28-0.15l-0.1-0.05l-0.19-0.09
			c-0.23-0.1-0.4-0.22-0.5-0.34c-0.1-0.12-0.15-0.28-0.15-0.46c0-0.24,0.09-0.43,0.26-0.59c0.17-0.16,0.39-0.24,0.64-0.24
			c0.36,0,0.64,0.17,0.83,0.5l-0.29,0.19c-0.08-0.13-0.16-0.22-0.25-0.27c-0.08-0.05-0.19-0.08-0.31-0.08
			c-0.15,0-0.28,0.05-0.38,0.14c-0.1,0.1-0.15,0.21-0.15,0.36c0,0.14,0.07,0.26,0.2,0.35c0.06,0.04,0.14,0.08,0.25,0.13l0.1,0.05
			l0.2,0.09c0.26,0.11,0.45,0.23,0.56,0.38C145.35,48.06,145.41,48.23,145.41,48.43z"/>
		<path d="M147.66,46.47h-0.78v2.89h-0.36v-2.89h-0.78v-0.33h1.92V46.47z"/>
		<path d="M149.82,49.37h-1.67v-3.23h1.67v0.33h-1.31v0.96h1.28v0.33h-1.28v1.26h1.31V49.37z"/>
		<path d="M155.11,49.37h-0.37l-0.3-2.25l-1.1,2.38l-1.08-2.39l-0.32,2.25h-0.37l0.53-3.4l1.24,2.72l1.27-2.72L155.11,49.37z"/>
		<path d="M158.41,49.37h-0.4l-0.38-0.91h-1.38l-0.38,0.91h-0.39l1.48-3.38L158.41,49.37z M157.49,48.12l-0.54-1.29l-0.55,1.29
			H157.49z"/>
		<path d="M159.72,45.68l-0.25,0.2l-0.42-0.36l-0.42,0.37l-0.26-0.2l0.67-0.58L159.72,45.68z M159.23,49.37h-0.36v-3.23h0.36V49.37z
			"/>
		<path d="M161.63,46.47h-0.78v2.89h-0.36v-2.89h-0.78v-0.33h1.92V46.47z"/>
		<path d="M163.98,49.37h-0.44l-0.97-1.41h-0.1v1.41h-0.36v-3.23h0.52c0.35,0,0.61,0.06,0.77,0.17c0.24,0.17,0.36,0.4,0.36,0.72
			c0,0.25-0.07,0.46-0.22,0.62c-0.15,0.16-0.34,0.25-0.59,0.28L163.98,49.37z M163.41,47.03c0-0.37-0.24-0.55-0.73-0.55h-0.21v1.16
			h0.23C163.18,47.63,163.41,47.43,163.41,47.03z"/>
		<path d="M166.21,49.37h-1.67v-3.23h1.67v0.33h-1.31v0.96h1.28v0.33h-1.28v1.26h1.31V49.37z"/>
		<path d="M170.31,46.14L169,49.55l-1.3-3.41h0.39l0.92,2.45l0.91-2.45H170.31z"/>
		<path d="M172.43,49.37h-1.67v-3.23h1.67v0.33h-1.31v0.96h1.28v0.33h-1.28v1.26h1.31V49.37z"/>
		<path d="M174.96,49.37h-0.44l-0.97-1.41h-0.1v1.41h-0.36v-3.23h0.52c0.35,0,0.61,0.06,0.77,0.17c0.24,0.17,0.36,0.4,0.36,0.72
			c0,0.25-0.07,0.46-0.22,0.62c-0.15,0.16-0.34,0.25-0.59,0.28L174.96,49.37z M174.39,47.03c0-0.37-0.24-0.55-0.73-0.55h-0.21v1.16
			h0.23C174.15,47.63,174.39,47.43,174.39,47.03z"/>
		<path d="M177.39,49.37h-0.44l-0.97-1.41h-0.1v1.41h-0.36v-3.23h0.52c0.35,0,0.61,0.06,0.77,0.17c0.24,0.17,0.36,0.4,0.36,0.72
			c0,0.25-0.07,0.46-0.22,0.62c-0.15,0.16-0.34,0.25-0.59,0.28L177.39,49.37z M176.82,47.03c0-0.37-0.24-0.55-0.73-0.55h-0.21v1.16
			h0.23C176.58,47.63,176.82,47.43,176.82,47.03z"/>
		<path d="M178.3,49.37h-0.36v-3.23h0.36V49.37z"/>
		<path d="M180.81,49.37h-1.67v-3.23h1.67v0.33h-1.31v0.96h1.28v0.33h-1.28v1.26h1.31V49.37z"/>
		<path d="M183.34,49.37h-0.44l-0.97-1.41h-0.1v1.41h-0.36v-3.23H182c0.35,0,0.61,0.06,0.77,0.17c0.24,0.17,0.36,0.4,0.36,0.72
			c0,0.25-0.07,0.46-0.22,0.62c-0.15,0.16-0.34,0.25-0.59,0.28L183.34,49.37z M182.77,47.03c0-0.37-0.24-0.55-0.73-0.55h-0.21v1.16
			h0.23C182.54,47.63,182.77,47.43,182.77,47.03z"/>
	</g>
	<g>
		<g>
			<rect x="60.87" y="21.25" class="st1" width="14.28" height="17.42"/>
			<rect x="39.25" y="21.3" class="st2" width="19.87" height="11.82"/>
			<rect x="67.34" y="40.34" class="st3" width="7.8" height="9.02"/>
			<rect x="50.63" y="34.71" class="st4" width="8.84" height="3.99"/>
			<rect x="39.28" y="34.7" class="st5" width="9.87" height="14.63"/>
			<rect x="50.84" y="40.37" class="st6" width="14.83" height="9.02"/>
			<path class="st7" d="M49.37,27.27c0,2.17-1.77,3.94-3.94,3.94c-2.18,0-3.94-1.76-3.94-3.94c0-2.18,1.76-3.94,3.94-3.94
				C47.6,23.34,49.37,25.1,49.37,27.27z"/>
			<path class="st8" d="M48.14,27.25c0,1.5-1.21,2.71-2.71,2.71c-1.5,0-2.71-1.21-2.71-2.71c0-1.5,1.21-2.71,2.71-2.71
				C46.92,24.53,48.14,25.75,48.14,27.25z"/>
		</g>
		<g>
			<g>
				<g>
					<path class="st9" d="M72.41,17.44c-0.36-0.57-0.5-0.7-0.8-0.97c-0.33-0.29-0.58-0.61-0.86-0.74c-0.82-0.38-1.94-0.45-2.96-0.43
						c-0.54,0.01-1.17,0.06-1.4,0.15c-0.41,0.16-2.17,0.41-2.79,0.6c-0.67,0.21-2.69,0.88-3.27,1.15c-0.73,0.34-1.45,0.76-1.88,1.06
						c-0.68,0.47-1.28,0.9-1.76,1.38c-0.39,0.39-1.03,1.4-1.14,2.05c-0.48,2.95,0.98,4.37,2.17,6.61c0.05,0.09,0.82,1.48,1.03,2.14
						c0.44,1.37-0.12,3.51-0.18,3.71c-0.04,0.12-0.21,0.45-0.22,0.5c-0.06,0.21-0.4,0.79-0.52,0.99c-0.47,0.78-1.2,1.53-1.76,2.1
						c-1.65,1.7-3.79,3.33-5.75,4.71c-0.7,0.5-1.21,0.8-1.9,1.25c-0.38,0.25-1.26,0.87-1.61,1.08c-0.74,0.46-1.09,0.61-1.5,0.89
						c-0.65,0.46-1.49,0.8-2.2,1.24c-0.8,0.5-1.69,0.92-2.44,1.41c-1.2,0.79-2.45,1.43-3.69,2.02c-0.42,0.2-0.88,0.49-1.15,0.6
						c-1.09,0.48-1.73,0.89-2.75,1.31c-0.45,0.18-0.83,0.55-1.16,0.73c-0.09,0.05-0.43,0.22-0.51,0.28
						c-0.76,0.49-1.54,0.72-2.34,1.14c-0.51,0.26-1.17,0.58-1.71,0.77c-0.09,0.03-0.8,0.52-0.88,0.57
						c-1.93,1.05-3.32,1.65-5.18,2.71c-0.38,0.21-1.21,0.67-1.26,0.71c-0.43,0.34-1.21,0.74-1.57,0.96c-0.31,0.2-0.7,0.33-1.02,0.53
						c-0.34,0.21-0.63,0.5-0.93,0.69c-1.08,0.65-2.29,1.18-3.04,2.25c0,0-1.13,1.22,0.28,0.71c1.4-0.51,0.74-0.55,1.17-0.86
						c0.24-0.18,0.97-0.57,1.02-0.61c1.24-1.03,3.02-1.88,4.31-2.71c0.47-0.3,1.08-0.51,1.58-0.8c0.52-0.31,0.92-0.75,1.49-0.96
						c0.73-0.27,1.12-0.71,1.78-0.91c0.27-0.08,0.21-0.09,0.43-0.25c0.43-0.31,1.06-0.36,1.59-0.64c0.27-0.15,0.69-0.49,0.96-0.6
						c0.71-0.29,1.15-0.59,1.58-0.81c0.67-0.35,1.52-0.78,2.36-1.16c0.89-0.41,1.42-0.7,1.75-0.82c0.61-0.22,0.92-0.57,1.54-0.83
						c1.59-0.67,4.58-2.24,6.62-3.35c0.53-0.29,5.45-2.72,8.41-4.56c0.42-0.26,0.72-0.5,1.16-0.81c0.88-0.62,1.58-1.06,2.32-1.54
						c1.31-0.85,2.71-1.87,3.94-2.88c1.47-1.2,2.98-2.45,4.1-3.91c0.29-0.38,0.46-0.82,0.7-1.21c0.27-0.44,0.58-1,0.71-1.44
						c0.08-0.29,0.2-1.15,0.21-1.84c0.08-0.47-0.25-2.24-0.6-2.98c-0.82-1.71-2.51-4.82-2.58-5.12c-0.26-1-0.54-2.18,0.4-3.41
						c0.32-0.42,2.89-2.4,5.48-1.96c0.02,0,0.9,0.23,1.15,0.35c0.04,0.02,0.21,0.2,0.42,0.3c0.19,0.1,0.57,0.54,0.76,0.77
						c0.34,0.4,0.58,0.59,1.4,0.5c0.16-0.02,0.18-0.2,0.39-0.26c0.27-0.08,0.73,0.09,0.89,0.04c0.21-0.07,0.55-0.46,0.88-0.53
						c0.29-0.07,0.74-0.13,0.83-0.49L72.41,17.44z"/>
				</g>
				<g>
					<path class="st10" d="M72.41,17.44c-0.36-0.57-0.5-0.7-0.8-0.97c-0.33-0.29-0.58-0.61-0.86-0.74
						c-0.82-0.38-1.94-0.45-2.96-0.43c-0.54,0.01-1.17,0.06-1.4,0.15c-0.41,0.16-2.17,0.41-2.79,0.6c-0.67,0.21-2.69,0.88-3.27,1.15
						c-0.73,0.34-1.45,0.76-1.88,1.06c-0.68,0.47-1.28,0.9-1.76,1.38c-0.39,0.39-1.03,1.4-1.14,2.05c-0.48,2.95,0.98,4.37,2.17,6.61
						c0.05,0.09,0.82,1.48,1.03,2.14c0.44,1.37-0.12,3.51-0.18,3.71c-0.04,0.12-0.21,0.45-0.22,0.5c-0.06,0.21-0.4,0.79-0.52,0.99
						c-0.47,0.78-1.2,1.53-1.76,2.1c-1.65,1.7-3.79,3.33-5.75,4.71c-0.7,0.5-1.21,0.8-1.9,1.25c-0.38,0.25-1.26,0.87-1.61,1.08
						c-0.74,0.46-1.09,0.61-1.5,0.89c-0.65,0.46-1.49,0.8-2.2,1.24c-0.8,0.5-1.69,0.92-2.44,1.41c-1.2,0.79-2.45,1.43-3.69,2.02
						c-0.42,0.2-0.88,0.49-1.15,0.6c-1.09,0.48-1.73,0.89-2.75,1.31c-0.45,0.18-0.83,0.55-1.16,0.73c-0.09,0.05-0.43,0.22-0.51,0.28
						c-0.76,0.49-1.54,0.72-2.34,1.14c-0.51,0.26-1.17,0.58-1.71,0.77c-0.09,0.03-0.8,0.52-0.88,0.57
						c-1.93,1.05-3.32,1.65-5.18,2.71c-0.38,0.21-1.21,0.67-1.26,0.71c-0.43,0.34-1.21,0.74-1.57,0.96c-0.31,0.2-0.7,0.33-1.02,0.53
						c-0.34,0.21-0.63,0.5-0.93,0.69c-1.08,0.65-2.29,1.18-3.04,2.25c0,0-1.13,1.22,0.28,0.71c1.4-0.51,0.74-0.55,1.17-0.86
						c0.24-0.18,0.97-0.57,1.02-0.61c1.24-1.03,3.02-1.88,4.31-2.71c0.47-0.3,1.08-0.51,1.58-0.8c0.52-0.31,0.92-0.75,1.49-0.96
						c0.73-0.27,1.12-0.71,1.78-0.91c0.27-0.08,0.21-0.09,0.43-0.25c0.43-0.31,1.06-0.36,1.59-0.64c0.27-0.15,0.69-0.49,0.96-0.6
						c0.71-0.29,1.15-0.59,1.58-0.81c0.67-0.35,1.52-0.78,2.36-1.16c0.89-0.41,1.42-0.7,1.75-0.82c0.61-0.22,0.92-0.57,1.54-0.83
						c1.59-0.67,4.58-2.24,6.62-3.35c0.53-0.29,5.45-2.72,8.41-4.56c0.42-0.26,0.72-0.5,1.16-0.81c0.88-0.62,1.58-1.06,2.32-1.54
						c1.31-0.85,2.71-1.87,3.94-2.88c1.47-1.2,2.98-2.45,4.1-3.91c0.29-0.38,0.46-0.82,0.7-1.21c0.27-0.44,0.58-1,0.71-1.44
						c0.08-0.29,0.2-1.15,0.21-1.84c0.08-0.47-0.25-2.24-0.6-2.98c-0.82-1.71-2.51-4.82-2.58-5.12c-0.26-1-0.54-2.18,0.4-3.41
						c0.32-0.42,2.89-2.4,5.48-1.96c0.02,0,0.9,0.23,1.15,0.35c0.04,0.02,0.21,0.2,0.42,0.3c0.19,0.1,0.57,0.54,0.76,0.77
						c0.34,0.4,0.58,0.59,1.4,0.5c0.16-0.02,0.18-0.2,0.39-0.26c0.27-0.08,0.73,0.09,0.89,0.04c0.21-0.07,0.55-0.46,0.88-0.53
						c0.29-0.07,0.74-0.13,0.83-0.49L72.41,17.44z"/>
				</g>
			</g>
			<g>
				<g>
					<path class="st11" d="M161.85,15.75c0.68-0.71,1.42-1.33,2.49-2.16c0.53-0.42,0.82-0.4,1.58-0.64
						c0.12-0.04,0.21-0.17,0.28-0.21c0.1-0.06,0.25-0.04,0.36-0.06c0.69-0.13,1.18-0.08,2.14-0.31l0.91,0
						c-0.1,0.53-0.87,0.98-1.51,1.46c-0.21,0.16-0.62,0.44-0.85,0.67c-0.22,0.22-0.57,0.43-0.88,0.69c-0.34,0.27-0.72,0.6-1.01,0.86
						c-0.34,0.31-0.84,0.64-1.17,0.94c-0.09,0.08-0.14,0.36-0.22,0.41c-0.25,0.17-0.68,0.25-1.05,0.41
						c-0.79,0.33-1.83,1.05-2.35,1.04c-0.16,0-1.7,0.54-2.13,0.12l0.34-0.52C159.56,17.59,161.01,16.62,161.85,15.75z"/>
					<path class="st11" d="M103.37,32.65c0.12-0.5,0.41-1.54,0.6-1.81c0.1-0.15,0.83-0.44,1.42-0.63c0.17-0.06,0.23-0.19,0.33-0.24
						c0.15-0.07,0.31-0.08,0.35-0.11c0.18-0.17,0.69-0.36,0.76-0.39c0.67-0.27,1.93-0.7,2.01-0.09c0.04,0.3-0.4,0.64-0.57,1.02
						c-0.27,0.62-0.25,1.58-0.13,2.08c0.32,1.32,2.31,1.17,2.98,0.05c0.2-0.34-0.13-0.93,0.38-1.22c-0.07,0.04,0.44-0.18,0.44-0.18
						c0.1-0.04,0.46-0.25,0.55-0.28c0.6-0.23,0.94-0.49,1.25-0.54c0.08-0.01,0.73-0.31,0.89-0.37c0.14-0.05,1.04-0.62,1.39-0.39
						c0.19,0.12,0.13,0.52,0.18,0.48c0-0.03-0.49,1.04-0.16,2.15c0.15,0.51,1.27,1.15,1.99,1.46c0.03,0.01,0.63,0.31,1.48,0.46
						c0,0,0.44,0.13,0.55,0.24c0.2,0.21-0.78,0.7-0.78,0.7c-0.61,0.53-2.82,0.79-3.77,0.82c-0.34,0.01-0.81-0.17-1.05-0.15
						c-0.41,0.02-0.8-0.02-0.95-0.04c-0.41-0.06-1.28-0.61-1.61-0.9c-0.28-0.25-0.44-0.56-0.65-0.64l-0.37,0.13
						c-0.66,0.25-1.79,0.91-2.68,1.16c-0.78,0.23-1.25,0.36-2.31,0.52c-0.1,0.01-0.38-0.03-0.63-0.01c-0.61,0.05-1.19-0.22-1.59-0.7
						C103.18,34.64,103.17,33.47,103.37,32.65z"/>
					<path class="st11" d="M85.57,37.13c0.21-0.38,0.52-1.36,0.42-1.03c0.04-0.14,0.1-0.59,0.21-0.79c0.02-0.04,0.08-0.21,0.1-0.27
						c0.13-0.38,0.15-0.62,0.22-0.82c0.01-0.03,0.17-0.29,0.18-0.33c0.23-0.7,0.22-1.01,0.37-1.71c0.29-1.43,0.54-2.97,0.67-4.47
						c0.03-0.4-0.24-0.52,0.29-0.74c0.5-0.21,0.85-0.35,1.35-0.55c1.05-0.42,2.53-0.95,3.16-0.84c0.18,0.03-0.14,2.55-0.22,3.6
						c-0.02,0.34-0.4,1.83-0.59,2.37c-0.06,0.17-0.13,0.41-0.17,0.51c-0.05,0.15-0.18,0.05-0.2,0.32c-0.03,0.59-0.12,0.47-0.18,0.67
						c-0.1,0.35-0.1,0.51-0.19,0.64c-0.17,0.23-0.61,1.46-0.64,1.53c-0.41,0.97-0.86,0.95-1.03,1.17c-0.7,0.66-2.03,0.96-2.98,1.25
						c0,0-0.58,0.12-0.71-0.02C85.5,37.48,85.57,37.13,85.57,37.13z"/>
					<path class="st11" d="M82.21,35.68c0.59,0.02,0.95,0.96,0.38,1.27l-0.39,0.34c-1.15,0.5-2.56,1.41-3.75,1.41l-0.3-0.08
						c-0.84-0.61,0.1-1.13,1.13-1.59c0.94-0.42,1.89-0.6,2.69-1.1C82.14,35.84,82.09,35.67,82.21,35.68z"/>
					<path class="st11" d="M74.81,56.1c-0.99,0.55-1.73,1.11-2.77,1.65c-0.65,0.33-1.41,0.94-2.26,1.33
						c-0.44,0.2-0.78,0.37-1.06,0.64c-0.03,0.03-0.36,0.27-0.38,0.28c-0.09,0.05-0.3,0.13-0.46,0.21c-0.83,0.39-1.64,1.13-2.61,1.47
						c-0.51,0.18-1.25,0.7-1.42,0.81c-0.55,0.37-1.05,0.64-1.62,0.98c-0.6,0.35-1.24,0.65-1.89,1.06c-0.23,0.14-0.38,0.33-0.6,0.46
						c-0.08,0.05-0.34,0.12-0.42,0.16c-0.23,0.11-0.47,0.34-0.67,0.48c-0.36,0.25-0.73,0.41-1.13,0.65
						c-0.24,0.14-0.53,0.35-0.73,0.47c-0.48,0.3-0.9,0.45-1.39,0.76c-0.39,0.24-0.81,0.56-1.25,0.87c-0.59,0.41-1.41,0.76-2.12,1.23
						c-0.2,0.13-1.46,1.12-1.86,1.27c-0.11,0.04-1.09,0.7-1.81,1.12c-0.13,0.1-0.2,0.26-0.31,0.36c-0.14,0.08-0.36,0.07-0.5,0.15
						c-0.4,0.34-0.92,0.51-1.3,0.69c-0.48,0.42-0.83,0.42-0.93,0.46c0,0-0.33,0.25-0.46,0.05c-0.12-0.2,0.12-0.27,0.12-0.27
						c0.4-0.36,0.64-0.61,1.03-0.89c0.23-0.16,0.52-0.19,0.77-0.36c0.32-0.22,0.55-0.53,0.89-0.77c1.38-1,2.99-2.08,4.59-3.05
						c2.39-1.58,4.98-3.14,7.24-4.55c1.39-0.87,2.75-1.61,3.84-2.27l0.24-0.09c3.31-2.24,7.2-4.17,10.59-6.48
						c2-1.36,4.57-2.97,6.57-4.43c0.92-0.68,1.93-1.32,2.65-1.98c0.1-0.09,0.08-0.15,0.18-0.23c0.07-0.06,0.34-0.3,0.42-0.34
						c0.76-0.47,1.42-1.18,2.13-1.81c1.24-1.11,2.65-2.36,3.69-3.66c0.16-0.2,0.5-0.3,0.7-0.52c0.59-0.66,0.99-1.39,1.51-1.92
						c0.08-0.09,0.39-0.49,0.46-0.58c0.05-0.06,0.15-0.13,0.19-0.21c0.06-0.11,0.13-0.27,0.27-0.47c0.07-0.1,0.17-0.33,0.29-0.47
						c0.05-0.06,0.4-0.65,0.46-0.78c0.14-0.31,0.24-0.34,0.4-0.66c0.04-0.09,0.29-0.5,0.32-0.59c0.08-0.23,0.16-0.39,0.32-0.65
						c0.8-1.39,1.35-4.27,0.97-6.3c-0.26-1.39-1.2-3.24-2.3-4.53c-0.51-0.6-1.24-1.15-1.94-1.68c-1.58-1.19-2.41-1.48-4.67-2.03
						c-0.85-0.21-1.39-0.07-1.65-0.01c-0.05,0.01-0.23-0.68,0.06-0.86c0.41-0.26,0.6-0.49,1.24-0.72c0.26-0.09,1.43-0.5,1.3-0.5
						c0.21-0.01,0.54-0.1,0.84-0.11c0.02,0,0.48-0.09,0.49-0.09c0.32-0.02,0.29-0.02,0.77,0.03c1.35,0.16,3.85,1.27,3,0.99
						c-0.42-0.14,2.3,1.2,2.7,1.54c0.12,0.11,0.49,0.46,0.62,0.56c0.37,0.27,0.65,0.32,1.09,0.75c0.33,0.33,0.45,0.55,0.69,0.94
						c0.1,0.16,0.32,0.21,0.33,0.22c0.12,0.22,0.33,0.65,0.44,0.79c0.22,0.27,0.27,0.78,0.46,1.11c0.06,0.11,0.23,0.27,0.28,0.39
						c0.23,0.6,0.38,1.52,0.58,2.38c0.05,0.22,0.14,0.67,0.17,0.88c0.06,0.47-0.07,0.84,0,1.16c0.23,1.1-0.68,3.82-0.77,3.89
						c-0.29,0.28-0.44,0.86-0.5,0.94c-0.13,0.19-0.08,0.19-0.15,0.32c-0.29,0.48-0.25,0.16-0.76,1.23
						c-0.11,0.24-0.52,0.68-0.67,0.86c-0.43,0.51-0.72,1.07-1.12,1.58c-0.26,0.34-0.59,0.77-0.89,1.04
						c-0.19,0.17-0.26,0.45-0.34,0.53c-0.15,0.17-0.71,0.67-0.88,0.86c-0.14,0.15-0.16,0.3-0.34,0.35c-0.26,0.07-0.86,0.73-0.9,0.76
						c-0.17,0.11-0.69,0.63-0.8,0.71c-0.27,0.2-0.55,0.51-0.84,0.78c-0.84,0.77-1.71,1.45-2.58,2.24c-0.96,0.87-2.02,1.55-3.08,2.38
						c-0.1,0.07-0.55,0.44-0.63,0.52c-0.14,0.13-0.37,0.17-0.53,0.32c-0.33,0.32-0.83,0.61-1.27,0.89
						c-0.91,0.59-1.67,1.16-2.72,1.72c-0.38,0.2-0.16,0.28-0.65,0.5c-0.73,0.32-1.73,1.12-2.54,1.62
						C76.44,55.12,75.61,55.65,74.81,56.1z"/>
					<path class="st11" d="M133.08,30.98c-0.54,0.48-1.29,1.03-1.7,1.58c-0.18,0.23-0.27,0.61-0.47,0.87
						c-0.06,0.08-0.33,0.47-0.26,0.4c-0.28,0.28-0.48,0.82-0.68,1.22c-0.5,1.01-0.87,1.92-1.39,2.89c-0.16,0.31-0.42,0.66-0.6,0.92
						c-0.06,0.08-0.12,0.29-0.15,0.33c-0.29,0.61-0.62,1.24-1.04,1.91c-0.15,0.23-0.26,0.63-0.37,0.74
						c-0.04,0.04-0.18,0.31-0.22,0.41c-0.15,0.33-0.73,0.99-0.98,1.42c-0.17,0.3-0.66,1.1-0.66,1.1c-0.72,0.96-1.67,2.19-2.28,3.07
						c-0.28,0.41-0.73,0.71-1.1,1.14c-1.04,1.22-2.13,2.41-3.36,3.59c-0.39,0.38-0.76,0.66-1.09,0.99
						c-0.26,0.26-0.51,0.56-0.76,0.72c-0.11,0.07-0.26,0.1-0.35,0.17c-0.37,0.3-0.87,0.86-1.44,1.29c-0.51,0.39-1.1,0.96-1.71,1.45
						c-0.7,0.58-1.38,1.34-1.78,1.54c-0.04,0.02-1.55,1.21-2.34,1.73c-0.11,0.07-0.8,0.52-1.08,0.73c-2.32,1.73-5.13,3.56-7.83,5.31
						c-0.79,0.51-1.52,1.05-2.28,1.53c-0.62,0.38-5.69,3.65-10.19,6.46c-3.44,2.15-6.54,4-7.05,4.19c0,0-0.52,0.32-0.44,0.12
						c0.16-0.41,0.84-0.95,0.84-0.95c0.48-0.29,2.24-1.51,5.31-3.5c3.27-2.12,7.37-4.72,10.65-6.93c2.12-1.43,3.97-2.61,4.96-3.39
						c0.31-0.24,0.34-0.3,0.78-0.52c0.39-0.19,0.79-0.56,1-0.73c0.42-0.33,1.11-0.84,1.61-1.2c0.18-0.13,0.44-0.29,0.59-0.4
						c0.56-0.44,1.53-1.04,2.09-1.66c0.34-0.37,0.81-0.69,1.4-1.18c0.52-0.43,0.92-0.79,1.37-1.15c0.29-0.24,0.77-0.51,0.96-0.82
						c0.18-0.29,0.38-0.52,0.71-0.76c0.72-0.54,1.23-1.15,1.91-1.78c0.48-0.45,0.88-1,1.34-1.58c0.21-0.27,0.58-0.64,0.88-0.95
						c0.37-0.37,0.86-1.03,1.2-1.42c0.3-0.35,0.59-0.59,0.99-1.04c0.16-0.19,0.56-0.83,1-1.51c0.94-1.45,1.62-2.31,2.42-3.72
						c0.1-0.18,0.39-0.66,0.45-0.75c0.21-0.34,0.45-0.88,0.68-1.18c0.16-0.21,0.54-0.92,0.66-1.22c0.07-0.18,0.21-0.47,0.27-0.6
						c0.11-0.29,0.24-0.6,0.39-0.88c0.2-0.39,0.34-0.58,0.59-1.08c0.1-0.19,0.36-0.55,0.45-0.75c0.09-0.21,0.08-0.35,0.16-0.54
						c0.1-0.24,0.81-1.42,0.85-1.85c-1.15-0.01-1.89,0.35-2.65,0.37c-0.18,0-0.47-0.05-0.68-0.03c-0.59,0.07-0.29-0.01-0.88-0.08
						c-0.61-0.07-0.85-0.32-1.26-0.79c-0.37-0.42-0.48-1.54-0.14-2.31c0.13-0.3,0.35-0.97,0.94-1.62c0.22-0.24,0.56-0.47,0.85-0.77
						c0.69-0.71,1.27-1,2.32-1.4c1.1-0.42,1.62-0.6,2.82-0.94c0.4-0.12,0.83-0.34,1.28-0.3c0.16,0.01,0.76,0.29,0.81,0.34
						c0.13,0.13,0.66,1.79,0.66,1.94c0,0-0.28-0.11-0.46,0.04c-0.18,0.15-0.6,0.08-0.6,0.08c-0.52-0.27-2.54,0.13-3.17,0.68
						c-0.6,0.52-0.8,1.17-0.83,1.46c-0.12,1.26,1.24,2.01,2.08,1.35c0.14-0.11,0.61-0.91,0.68-1c0.23-0.33,0.33-0.75,0.71-1
						c0,0,1.04-1.12,1.84-1.38c0.76-0.33,2.23-0.71,3.18-1.04c0.2-0.07,0.27-0.17,0.37-0.19c0.01,0,0.53-0.02,0.51-0.02
						c0.46,0.13,0.71,0.56,0.3,1.21c-0.04,0.06-0.41,0.57-0.53,0.75C134.04,30.28,133.32,30.77,133.08,30.98z"/>
					<path class="st11" d="M151.35,34.59c-0.15,0.1-1.14,0.93-3.33,1.29c-1.95,0.32-2.93,0.05-3.49-0.32
						c0.03,0.02-0.71-0.75-0.68-0.7c-0.21-0.31-0.28-0.9-0.38-1.27c-1.32,0.6-4.27,1.9-4.27,1.9c-1.02,0.22-1.65,0.44-2.55,0.61
						c-0.47,0.09-1.51-0.18-1.8-0.48c-0.64-0.68-0.14-1.53-0.02-2.1c0.11-0.54,1.45-2.41,1.8-2.91c0.05-0.08,0.31-0.11,0.63-0.19
						c0.98-0.26,1.84-0.98,3.34-1.13c0,0,0.21,0,0.41,0.2c0.2,0.2,0.18,0.34,0.18,0.34c-0.08,0.16-0.03,0.43-0.39,0.34
						c0.06,0.24-0.57,0.88-0.6,0.92c-0.38,0.55-1.39,2.72-0.03,2.66c0.44-0.02,3-2.12,3.34-2.66c0.41-0.64,0.09-1.04,0.82-1.33
						c1.01-0.41,2.9-1.04,3.73-1.23c1.53-0.35,0.07,2.47,0.34,3.78c0.02,0.09-0.32,1.65,1.24,1.92c0.53,0.09,1.78-0.6,1.92,0.11
						L151.35,34.59z"/>
					<g>
						<g>
							<path class="st11" d="M184.66,30.86c-0.37-0.13-0.94,0.05-0.94,0.05c-0.65,0.24-2.97,1.05-5.92,1.88
								c-1.08,0.24-2.32,0.56-3.26,0.78c-0.48,0.12-1.7,0.4-2.38,0.55c-3.66,0.8-10.33,2.15-13-0.03c-0.46-0.38-0.93-1.58-0.59-1.85
								c0.15-0.12,1.34-0.17,1.6-0.26c0.07-0.03,0.25-0.22,0.32-0.23c0.84-0.18,2.14-0.62,2.9-0.9c0.93-0.33,1.83-0.75,2.53-1.24
								c0.28-0.2,0.67-0.47,0.87-0.69c0.05-0.05,0.45-0.54,0.48-0.65c0.38-1.32-0.99-1.73-1.65-1.91c-0.97-0.27-3.18,0.14-4.19,0.38
								c-0.69,0.16-1.21,0.23-3.18,1.11c-0.84,0.38-1.63,1.01-2.47,1.62c-1.41,1.03-2.58,2.9-2.22,4.56
								c0.32,1.49,1.23,2.57,4.07,2.84c2.59,0.25,5.48,0.07,7.46-0.25c0.75-0.12,2.33-0.32,2.75-0.46c0.37-0.13,0.94-0.22,1.12-0.28
								c0.56-0.18,3.66-0.84,4.97-1.18c1.65-0.43,3.29-0.88,5.73-1.62c2.3-0.7,3.94-1.57,4.92-1.91
								C184.56,31.15,185.05,30.99,184.66,30.86z M160.28,28.92c0.39-0.4,1.16-0.57,1.23-0.56c0.68,0.09,0.8,0.67,0.49,1.13
								c-0.03,0.04-0.06,0.08-0.09,0.12c-0.01,0.01,0,0.06-0.06,0.12c-0.53,0.61-1.31,0.62-1.79,0.75c-0.31,0.1-1.05,0.47-1.22,0.29
								C158.8,30.4,159.42,29.82,160.28,28.92z"/>
						</g>
					</g>
				</g>
				<g>
					<g>
						<path class="st11" d="M72.4,17.45c-0.36-0.57-0.5-0.7-0.8-0.97c-0.33-0.29-0.58-0.61-0.86-0.74
							c-0.82-0.38-1.94-0.45-2.96-0.43c-0.54,0.01-1.17,0.06-1.4,0.15c-0.41,0.16-2.17,0.41-2.78,0.6
							c-0.67,0.21-2.69,0.88-3.27,1.15c-0.73,0.34-1.45,0.76-1.89,1.06c-0.68,0.47-1.28,0.9-1.76,1.39
							c-0.39,0.39-1.03,1.4-1.14,2.05c-0.48,2.95,0.98,4.37,2.17,6.61c0.05,0.09,0.82,1.48,1.03,2.14c0.44,1.37-0.12,3.51-0.18,3.71
							c-0.04,0.12-0.21,0.45-0.22,0.5c-0.06,0.21-0.39,0.79-0.52,0.99c-0.47,0.78-1.2,1.53-1.75,2.1c-1.65,1.7-3.79,3.33-5.75,4.71
							c-0.7,0.5-1.21,0.8-1.9,1.25c-0.38,0.25-1.26,0.87-1.61,1.09c-0.73,0.46-1.09,0.61-1.5,0.89c-0.65,0.45-1.49,0.79-2.2,1.24
							c-0.8,0.5-1.69,0.92-2.44,1.41c-1.2,0.79-2.45,1.43-3.69,2.02c-0.42,0.2-0.88,0.49-1.15,0.6c-1.09,0.48-1.73,0.89-2.75,1.31
							c-0.45,0.18-0.83,0.55-1.16,0.73c-0.09,0.05-0.43,0.23-0.51,0.28c-0.76,0.48-1.54,0.72-2.34,1.14
							c-0.51,0.26-1.17,0.58-1.71,0.77c-0.09,0.03-0.79,0.53-0.88,0.57c-1.93,1.05-3.33,1.65-5.18,2.71
							c-0.38,0.21-1.21,0.67-1.26,0.7c-0.43,0.34-1.21,0.74-1.57,0.96c-0.31,0.2-0.7,0.33-1.02,0.53c-0.34,0.21-0.63,0.5-0.93,0.69
							c-1.08,0.66-2.29,1.18-3.04,2.25c0,0-1.13,1.22,0.28,0.71c1.4-0.51,0.74-0.55,1.17-0.86c0.24-0.18,0.97-0.57,1.02-0.62
							c1.24-1.03,3.02-1.88,4.31-2.71c0.47-0.3,1.08-0.51,1.57-0.8c0.53-0.31,0.92-0.75,1.49-0.96c0.73-0.27,1.12-0.71,1.78-0.9
							c0.27-0.08,0.21-0.09,0.43-0.25c0.43-0.31,1.06-0.36,1.58-0.64c0.27-0.14,0.69-0.49,0.97-0.6c0.71-0.29,1.15-0.59,1.58-0.81
							c0.67-0.35,1.52-0.78,2.36-1.16c0.89-0.41,1.42-0.7,1.75-0.82c0.61-0.22,0.92-0.57,1.54-0.83c1.59-0.67,4.58-2.23,6.62-3.35
							c0.53-0.29,5.45-2.72,8.41-4.56c0.42-0.26,0.72-0.5,1.16-0.81c0.88-0.62,1.58-1.06,2.32-1.54c1.31-0.85,2.71-1.87,3.94-2.88
							c1.46-1.2,2.98-2.45,4.1-3.92c0.29-0.38,0.46-0.82,0.7-1.21c0.27-0.45,0.58-1,0.71-1.44c0.08-0.29,0.2-1.15,0.21-1.84
							c0.08-0.47-0.25-2.24-0.6-2.98c-0.82-1.71-2.51-4.81-2.59-5.12c-0.26-1-0.54-2.18,0.4-3.41c0.32-0.42,2.89-2.4,5.48-1.96
							c0.02,0,0.9,0.23,1.15,0.35c0.04,0.02,0.21,0.2,0.42,0.3c0.19,0.1,0.57,0.54,0.76,0.77c0.34,0.4,0.59,0.59,1.4,0.5
							c0.46-0.05,1.12-0.17,1.28-0.22c0.21-0.07,0.55-0.45,0.88-0.53c0.29-0.07,0.74-0.13,0.83-0.49L72.4,17.45z"/>
					</g>
				</g>
			</g>
		</g>
	</g>
</g>
</svg>
